<?xml version="1.0" encoding="utf-8"?>
<!-- Generator: Adobe Illustrator 26.0.3, SVG Export Plug-In . SVG Version: 6.00 Build 0)  -->
<svg version="1.1" id="Layer_1" xmlns="http://www.w3.org/2000/svg" xmlns:xlink="http://www.w3.org/1999/xlink" x="0px" y="0px"
	 viewBox="0 0 960 540" style="enable-background:new 0 0 960 540;" xml:space="preserve">
<style type="text/css">
	.st0{clip-path:url(#SVGID_00000122706339994718244920000002607620316101477790_);fill:#DA8C44;}
	.st1{clip-path:url(#SVGID_00000122706339994718244920000002607620316101477790_);fill:#C06240;}
	.st2{clip-path:url(#SVGID_00000122706339994718244920000002607620316101477790_);fill:#923315;}
	.st3{clip-path:url(#SVGID_00000122706339994718244920000002607620316101477790_);fill:#354D37;}
	.st4{clip-path:url(#SVGID_00000122706339994718244920000002607620316101477790_);fill:#727D5F;}
	.st5{fill:#4D4D4F;}
	.st6{fill:none;}
	.st7{fill:#FFFFFF;}
	.st8{fill:#C06240;}
	.st9{fill:#727D5F;}
	.st10{fill:#923315;}
	.st11{fill:#DA8C44;}
	.st12{fill:#354D37;}
</style>
<g>
	<path class="st12" d="M161.56,80.29c4.09,1.67,7.35,4.09,9.78,7.28c-0.31,6.97-1.02,13.53-2.16,19.67
		c-1.14,6.14-2.39,12.17-3.75,18.08c-1.36,5.91-2.69,11.79-3.98,17.62c-1.29,5.84-2.39,11.94-3.3,18.3
		c4.7-0.45,10.57-0.8,17.62-1.02c7.05-0.23,13.68-0.42,19.9-0.57c1.82,0,3.6,0.04,5.34,0.11c1.74,0.08,3.26,0.34,4.55,0.8
		c1.29,0.46,2.23,1.25,2.84,2.39c0.6,1.14,0.68,2.69,0.23,4.66c-7.73-0.91-16.11-1.17-25.13-0.8c-9.02,0.38-17.85,1.02-26.49,1.93
		c-1.22,5.46-2.2,11.41-2.96,17.85c-0.76,6.44-1.44,13.15-2.05,20.12c-0.91,11.98-1.4,21.98-1.48,30.01
		c-0.08,8.03,0.07,14.59,0.45,19.67c0.38,5.08,0.95,9.06,1.71,11.94c0.76,2.88,1.51,5.12,2.27,6.71c0.76,1.59,1.44,2.84,2.05,3.75
		c0.6,0.91,0.91,2.05,0.91,3.41c-2.88-0.31-4.97-1.36-6.25-3.18c-1.29-1.82-2.77-3.56-4.43-5.23c-2.88-6.82-4.74-14.63-5.57-23.42
		c-0.83-8.79-1.1-17.81-0.8-27.06c0.3-9.24,0.98-18.42,2.05-27.51c1.06-9.09,2.2-17.51,3.41-25.24c-5.76,0.31-11.56,1.1-17.39,2.39
		c-5.84,1.29-11.18,2.84-16.03,4.66c-4.7,11.67-9.55,23.57-14.55,35.7c-5,12.13-9.25,24.48-12.73,37.06
		c-0.6,1.97-1.02,3.83-1.25,5.57c-0.23,1.74-1.25,2.99-3.07,3.75c-4.39,0-7.05-1.67-7.96-5c1.67-6.97,3.64-13.64,5.91-20.01
		s4.74-12.58,7.39-18.65s5.34-12.09,8.07-18.08c2.73-5.99,5.3-12.09,7.73-18.3c-3.18,0.45-6.25,1.14-9.21,2.05s-5.91,1.74-8.87,2.5
		c-2.96,0.76-6.03,1.4-9.21,1.93c-3.18,0.53-6.44,0.8-9.78,0.8c-2.12-1.21-4.09-2.54-5.91-3.98c-1.82-1.44-2.58-3.67-2.27-6.71
		c1.36-0.46,2.61-0.38,3.75,0.23c1.14,0.61,2.31,1.06,3.52,1.36c4.09-0.15,7.92-0.53,11.48-1.14c3.56-0.6,7.05-1.33,10.46-2.16
		c3.41-0.83,6.78-1.67,10.12-2.5c3.33-0.83,6.82-1.48,10.46-1.93c4.09-7.88,8.19-15.84,12.28-23.88c4.09-8.03,8.3-15.88,12.62-23.53
		c4.32-7.65,8.9-15.08,13.76-22.28C150.5,93.22,155.8,86.51,161.56,80.29z M117.68,168.06c4.85-0.76,9.66-1.55,14.44-2.39
		c4.77-0.83,9.74-1.55,14.89-2.16c1.97-11.52,4.17-22.77,6.59-33.77c2.42-10.99,4.7-22.17,6.82-33.54
		c-4.09,4.85-8.07,10.16-11.94,15.92c-3.87,5.76-7.54,11.75-11.03,17.96c-3.49,6.22-6.9,12.54-10.23,18.99
		C123.89,155.52,120.71,161.85,117.68,168.06z"/>
	<path class="st12" d="M214.54,211.72c-2.43,0.31-3.98-0.19-4.66-1.48c-0.68-1.29-1.48-2.39-2.39-3.3
		c-0.91-2.27-1.36-4.66-1.36-7.16c0-2.5,0.15-5.04,0.45-7.62c0.3-2.58,0.6-5.12,0.91-7.62c0.3-2.5,0.3-5.04,0-7.62
		c-3.49,2.58-6.56,6.1-9.21,10.57c-2.65,4.47-5.57,8.45-8.75,11.94c-0.91,2.12-1.93,4.13-3.07,6.03c-1.14,1.9-2.24,3.9-3.3,6.03
		c-0.91,1.21-2.09,2.31-3.52,3.3c-1.44,0.99-2.88,1.59-4.32,1.82c-1.44,0.23-2.76,0-3.98-0.68c-1.21-0.68-2.05-2.16-2.5-4.43
		c-0.76-3.33-0.53-6.63,0.68-9.89c1.21-3.26,2.27-6.48,3.18-9.66c0.91-2.58,1.82-5,2.73-7.28c0.91-2.27,1.59-4.24,2.05-5.91
		c1.82,0.31,3.6,0.61,5.34,0.91c1.74,0.31,2.99,1.06,3.75,2.27c-0.45,1.67-1.06,3.18-1.82,4.55c-0.76,1.36-1.44,2.88-2.05,4.55
		c2.12-1.36,3.87-3.26,5.23-5.68c1.36-2.42,2.8-4.78,4.32-7.05c1.51-2.27,3.37-4.21,5.57-5.8c2.2-1.59,5.19-2.16,8.98-1.71
		c1.67,0.76,3.07,1.71,4.21,2.84c1.14,1.14,2.23,2.47,3.3,3.98c0.6,2.73,0.68,5.57,0.23,8.53c-0.46,2.96-0.91,5.91-1.36,8.87
		c-0.46,2.96-0.68,5.84-0.68,8.64C212.49,206.45,213.18,209.14,214.54,211.72z"/>
	<path class="st12" d="M254.1,173.74c0.6,1.97,0.68,3.79,0.23,5.46c-0.45,1.67-1.18,3.07-2.16,4.21c-0.99,1.14-2.24,1.82-3.75,2.05
		c-1.52,0.23-3.11-0.19-4.77-1.25c-0.31-0.76-0.34-1.59-0.11-2.5s0.26-1.74,0.11-2.5c-2.27,1.67-4.28,3.87-6.03,6.59
		c-1.74,2.73-3.38,5.61-4.89,8.64c-1.36,3.03-2.58,6.22-3.64,9.55c-1.06,3.34-2.12,6.75-3.18,10.23c4.4-2.73,8.26-5.99,11.6-9.78
		c3.33-3.79,6.55-7.69,9.66-11.71c3.1-4.01,6.21-7.99,9.32-11.94c3.11-3.94,6.63-7.43,10.57-10.46c1.21,0,2.23,0.23,3.07,0.68
		c0.83,0.46,1.78,0.83,2.84,1.14c1.21,2.58,2.05,5.54,2.5,8.87c0.45,3.34,0.68,6.86,0.68,10.57c0,3.72-0.04,7.47-0.11,11.25
		c-0.08,3.79-0.04,7.35,0.11,10.69c8.79-0.76,15.95,0.61,21.49,4.09c5.53,3.49,9.59,8.33,12.16,14.55c0,1.21,0.11,2.65,0.34,4.32
		c0.23,1.67,0.04,2.96-0.57,3.87c-0.91-1.06-1.33-2.16-1.25-3.3c0.07-1.14-0.04-2.24-0.34-3.3c-0.76-2.73-2.12-5.16-4.09-7.28
		c-1.97-2.12-4.36-3.75-7.16-4.89c-2.81-1.14-5.91-1.78-9.32-1.93c-3.41-0.15-6.94,0.31-10.57,1.36c-0.76,8.19-1.56,16.1-2.39,23.76
		c-0.83,7.65-1.86,15.2-3.07,22.62c-2.43,14.7-6.1,28.12-11.03,40.25c-4.93,12.13-10.8,23.57-17.62,34.33
		c-3.34,5.3-7.13,10.15-11.37,14.55c-4.24,4.39-9.47,7.65-15.69,9.78c-5.46-0.15-9.97-1.29-13.53-3.41
		c-3.56-2.12-6.56-4.81-8.98-8.07c-2.42-3.26-4.43-6.94-6.03-11.03c-1.59-4.09-3.22-8.19-4.89-12.28c-1.21-8.34-1.21-16.14,0-23.42
		c1.21-7.28,3.11-13.95,5.68-20.01c2.58-6.06,5.54-11.79,8.87-17.17c3.34-5.38,6.9-10.2,10.69-14.44
		c8.19-9.1,17.28-17.21,27.29-24.33c10-7.13,21.07-12.88,33.2-17.28c0.45-5.61,0.53-11.26,0.23-16.94
		c-0.31-5.68-0.38-11.4-0.23-17.17c-0.91,0.45-1.71,1.18-2.39,2.16c-0.68,0.99-1.4,1.93-2.16,2.84c-3.49,4.7-7.01,9.44-10.57,14.21
		c-3.56,4.77-7.54,9.36-11.94,13.76c-1.52,1.52-3.34,3.38-5.46,5.57c-2.12,2.2-4.02,3.37-5.68,3.52c-2.58,0.3-4.62-0.31-6.14-1.82
		c-1.51-1.51-2.88-3.1-4.09-4.77c-0.15-5.61,0.38-10.72,1.59-15.35c1.22-4.62,2.88-8.83,5-12.62c2.12-3.79,4.59-7.24,7.39-10.35
		c2.8-3.1,5.8-6.03,8.98-8.75c2.27,0.31,4.51,0.72,6.71,1.25C251.41,170.98,253.04,172.08,254.1,173.74z M218.18,258.78
		c-3.03,3.79-6.06,7.62-9.1,11.48c-3.03,3.87-5.61,8.22-7.73,13.07c-2.12,4.85-4.21,9.93-6.25,15.23c-2.05,5.3-3.3,10.84-3.75,16.6
		c-0.6,8.19-0.23,15.84,1.14,22.96c1.36,7.12,4.02,12.96,7.96,17.51c5.16,0.91,9.63,0.68,13.42-0.68c3.79-1.36,7.13-3.38,10-6.03
		c2.88-2.65,5.38-5.72,7.5-9.21c2.12-3.49,4.17-6.82,6.14-10c3.03-5,5.8-10.01,8.3-15.01c2.5-5,4.81-10.16,6.94-15.46
		c4.39-11.52,7.84-23.76,10.35-36.72c2.5-12.96,3.98-25.96,4.43-39c0-0.45-0.15-0.53-0.45-0.23c-8.49,4.39-17.13,9.4-25.92,15.01
		C232.35,243.93,224.7,250.75,218.18,258.78z"/>
	<path class="st12" d="M299.12,196.25c-1.22,1.52-2.05,3.41-2.5,5.68c-0.45,2.27-0.98,4.55-1.59,6.82c2.58,1.36,5.27,2.09,8.07,2.16
		c2.8,0.08,5.61-0.23,8.41-0.91c2.8-0.68,5.57-1.59,8.3-2.73s5.3-2.23,7.73-3.3c3.49-1.51,6.82-3.22,10-5.12
		c3.18-1.89,6.29-3.6,9.32-5.12c0.15,1.06-0.31,1.93-1.36,2.62c-1.06,0.68-1.97,1.4-2.73,2.16c-0.76,0.76-1.59,1.4-2.5,1.93
		c-0.91,0.53-1.67,1.33-2.27,2.39c-1.67,1.22-3.34,2.5-5,3.87c-1.67,1.36-3.49,2.65-5.46,3.87c-1.67,1.67-4.02,3.38-7.05,5.12
		c-3.03,1.74-6.25,3.07-9.66,3.98s-6.71,1.21-9.89,0.91c-3.18-0.3-5.83-1.74-7.96-4.32c-1.51-2.12-2.5-4.81-2.96-8.07
		c-0.45-3.26-0.45-6.63,0-10.12c2.73-7.28,6.14-13.72,10.23-19.33c4.09-5.61,9.4-10.08,15.92-13.42c0.3,0.15,0.49,0.15,0.57,0
		c0.07-0.15,0.26-0.23,0.57-0.23c4.4-0.46,7.84,0.23,10.35,2.05c2.5,1.82,3.37,4.85,2.62,9.1c-2.88,5.15-6.33,9.7-10.35,13.64
		c-4.02,3.94-9.51,6.52-16.49,7.73C301.47,197.62,300.03,197.16,299.12,196.25z M305.03,185.57c3.49-1.67,6.94-3.71,10.35-6.14
		c3.41-2.42,5.8-5.15,7.16-8.19C315.72,174.73,309.88,179.51,305.03,185.57z"/>
	<path class="st12" d="M411.9,33c4.09,0.31,6.97,1.78,8.64,4.43c1.67,2.65,2.65,5.8,2.96,9.44c0.3,3.64,0.04,7.47-0.8,11.48
		c-0.83,4.02-1.71,7.54-2.61,10.57c-2.88,9.25-5.99,18.3-9.32,27.17c-3.34,8.87-6.75,17.39-10.23,25.58
		c-5.31,11.82-10.46,23.19-15.46,34.11c-5,10.91-10.77,20.77-17.28,29.56c-1.06,0.91-2.12,1.74-3.18,2.5
		c-1.06,0.76-2.12,1.67-3.18,2.73c-0.76,2.73-1.33,5.72-1.71,8.98c-0.38,3.26-0.53,6.48-0.45,9.66c0.07,3.18,0.53,6.18,1.36,8.98
		c0.83,2.81,2.08,5.12,3.75,6.94c3.64-0.91,6.9-2.16,9.78-3.75c2.88-1.59,5.61-3.33,8.19-5.23c2.58-1.89,5.04-3.9,7.39-6.03
		c2.35-2.12,4.81-4.17,7.39-6.14c2.12-2.27,4.43-4.4,6.94-6.37c2.5-1.97,4.81-4.09,6.94-6.37c2.73-1.82,5.12-3.94,7.16-6.37
		c2.05-2.42,4.58-4.39,7.62-5.91c-1.06,3.03-2.58,5.8-4.55,8.3c-1.97,2.5-4.02,5.04-6.14,7.62c-2.12,2.58-4.13,5.15-6.03,7.73
		c-1.9,2.58-3.9,5-6.03,7.28c-2.12,2.58-4.28,4.85-6.48,6.82c-2.2,1.97-4.74,4.02-7.62,6.14c-2.43,1.82-5.16,3.79-8.19,5.91
		c-3.03,2.12-6.44,3.1-10.23,2.96c-2.58,0-5.08-0.72-7.5-2.16c-2.43-1.44-4.55-3.26-6.37-5.46c-1.82-2.2-3.3-4.74-4.43-7.62
		c-1.14-2.88-1.78-5.83-1.93-8.87c0-2.58,0.34-5.23,1.02-7.96s0.87-5.38,0.57-7.96c-0.15-0.91-0.49-1.74-1.02-2.5
		c-0.53-0.76-0.72-1.59-0.57-2.5c0.15-1.06,0.49-1.63,1.02-1.71c0.53-0.07,0.95-0.72,1.25-1.93c2.27-14.7,5.23-28.99,8.87-42.86
		s7.65-27.32,12.05-40.36c2.12-6.37,4.43-12.65,6.94-18.87c2.5-6.21,5.34-12.05,8.53-17.51s6.44-10.84,9.78-16.14
		c3.33-5.3,7.43-9.78,12.28-13.42C411.29,33.3,411.59,33,411.9,33z M392.35,114.63c2.12-4.85,4.32-9.7,6.59-14.55
		c2.27-4.85,4.32-10.08,6.14-15.69c2.12-6.37,4.32-13,6.59-19.9c2.27-6.9,3.11-14.29,2.5-22.17c0-0.3-0.08-0.45-0.23-0.45
		c-3.79,4.25-7.13,8.68-10,13.3c-2.88,4.63-5.68,9.44-8.41,14.44c-5.31,9.7-9.89,20.12-13.76,31.26
		c-3.87,11.14-7.31,22.62-10.35,34.45c-1.36,6.06-2.81,12.09-4.32,18.08c-1.52,5.99-2.65,12.16-3.41,18.53
		c5.3-9.1,10.31-18.38,15.01-27.85C383.4,134.6,387.95,124.78,392.35,114.63z"/>
	<path class="st12" d="M423.04,174.65c2.12,0.31,3.71,1.1,4.77,2.39c1.06,1.29,1.82,2.84,2.27,4.66c0,0.45-0.34,0.65-1.02,0.57
		c-0.68-0.07-1.18,0.11-1.48,0.57c-2.43,4.7-4.74,9.7-6.93,15.01c-2.2,5.31-3.07,11.52-2.62,18.65c3.79,0.91,7.39,0.65,10.8-0.8
		c3.41-1.44,6.48-2.84,9.21-4.21c2.88-1.51,5.65-3.07,8.3-4.66c2.65-1.59,5.19-3.45,7.62-5.57c3.94-2.58,7.84-5.15,11.71-7.73
		c3.87-2.58,7.99-5,12.39-7.28c1.36-0.6,2.76-1.4,4.21-2.39c1.44-0.98,2.84-1.4,4.21-1.25c-1.67,2.43-3.72,4.51-6.14,6.25
		c-2.43,1.74-4.7,3.68-6.82,5.8c-3.03,2.73-6.29,5.57-9.78,8.53c-3.49,2.96-7.13,5.95-10.91,8.98c-3.49,2.88-7.16,5.61-11.03,8.19
		s-8.6,4.01-14.21,4.32c-9.7,0.45-15.99-3.49-18.87-11.82c-0.15-2.27-0.11-4.28,0.11-6.03c0.23-1.74,0.49-3.52,0.8-5.34
		c0.91-2.27,1.74-4.62,2.5-7.05c0.76-2.42,1.56-4.85,2.39-7.28c0.83-2.42,1.86-4.66,3.07-6.71c1.21-2.05,2.73-3.75,4.55-5.12
		L423.04,174.65z M439.87,138.96c1.21,2.27,1.4,4.7,0.57,7.28c-0.83,2.58-2.39,4.17-4.66,4.77c-1.67-0.45-3.11-1.02-4.32-1.71
		c-1.22-0.68-2.05-1.85-2.5-3.52c1.36-1.67,2.76-3.26,4.21-4.77C434.6,139.49,436.83,138.81,439.87,138.96z"/>
	<path class="st12" d="M485.57,191.93c3.03-1.97,6.03-3.79,8.98-5.46c2.96-1.67,5.95-3.49,8.98-5.46c2.88-1.82,5.8-3.79,8.75-5.91
		c2.96-2.12,6.48-3.1,10.57-2.96c0.91,1.82,1.06,3.38,0.46,4.66c-0.61,1.29-1.56,2.39-2.84,3.3c-1.29,0.91-2.77,1.74-4.43,2.5
		c-1.67,0.76-3.11,1.52-4.32,2.27c-2.73,1.67-5.42,3.49-8.07,5.46c-2.65,1.97-5.04,3.79-7.16,5.46c-0.3,0.46-0.99,0.99-2.05,1.59
		c-1.06,0.61-2.16,1.22-3.3,1.82c-1.14,0.61-2.2,1.25-3.18,1.93c-0.99,0.68-1.48,1.4-1.48,2.16c-0.15,0.91,0.15,1.63,0.91,2.16
		c0.76,0.53,1.67,0.99,2.73,1.36c1.06,0.38,2.2,0.61,3.41,0.68c1.21,0.08,2.27,0.11,3.18,0.11c7.12,0,13.76-1.44,19.9-4.32
		c6.14-2.88,12.09-5.83,17.85-8.87c6.06-3.03,11.86-6.06,17.39-9.09c5.53-3.03,10.72-5.91,15.58-8.64c-0.91,2.27-2.2,4.25-3.87,5.91
		c-1.67,1.67-3.41,3.22-5.23,4.66c-1.82,1.44-3.64,2.88-5.46,4.32c-1.82,1.44-3.41,3.07-4.77,4.89c-4.09,2.12-8.11,4.36-12.05,6.71
		c-3.94,2.35-8.07,4.55-12.39,6.59s-8.91,3.75-13.76,5.12c-4.85,1.36-10.31,2.05-16.37,2.05c-4.55-1.36-8.19-3.87-10.92-7.5
		c-1.21,7.43-2.09,15.2-2.61,23.31c-0.53,8.11-1.4,15.95-2.61,23.53c-0.91,1.06-1.67,2.27-2.27,3.64c-0.6,1.36-1.51,2.42-2.73,3.18
		c-1.51-0.45-3.26-1.06-5.23-1.82c0-10.91,0.8-21.49,2.39-31.72c1.59-10.23,3-20.58,4.21-31.04c-0.6-0.3-1.44-0.42-2.5-0.34
		c-1.06,0.08-1.82-0.11-2.27-0.57c0.31-2.12,1.18-3.64,2.61-4.55c1.44-0.91,2.54-2.2,3.3-3.87c2.12-13.79,4.47-27.29,7.05-40.47
		c2.58-13.19,5.99-25.77,10.23-37.74c1.97-5.91,4.09-11.71,6.37-17.39s4.74-11.14,7.39-16.37c2.65-5.23,5.61-10.15,8.87-14.78
		c3.26-4.62,7.01-8.9,11.26-12.85c2.88-1.67,6.21-1.89,10-0.68c2.88,2.12,4.74,5,5.57,8.64c0.83,3.64,1.1,7.58,0.8,11.82
		c-0.31,4.25-0.95,8.57-1.93,12.96c-0.99,4.4-1.86,8.34-2.62,11.82c-3.03,13.8-7.31,27.06-12.85,39.79
		c-5.54,12.73-11.71,23.65-18.53,32.74c-3.03,4.7-6.44,8.98-10.23,12.85C492.46,183.41,488.9,187.54,485.57,191.93z M506.49,96.89
		c-1.82,6.22-3.68,12.39-5.57,18.53c-1.9,6.14-3.72,12.39-5.46,18.76c-1.74,6.37-3.3,12.89-4.66,19.55
		c-1.37,6.67-2.43,13.64-3.18,20.92c3.48-3.18,6.63-6.86,9.44-11.03c2.8-4.17,5.49-8.45,8.07-12.85c2.58-4.4,5.12-8.9,7.62-13.53
		c2.5-4.62,4.66-9.44,6.48-14.44c1.82-5,3.64-10.15,5.46-15.46c1.82-5.3,3.41-10.8,4.77-16.48s2.39-11.6,3.07-17.74
		c0.68-6.14,0.87-12.62,0.57-19.44h-0.46c-3.03,2.73-5.72,5.84-8.07,9.32c-2.35,3.49-4.55,7.09-6.59,10.8
		c-2.05,3.72-3.98,7.54-5.8,11.48C510.35,89.24,508.46,93.1,506.49,96.89z"/>
	<path class="st12" d="M589.02,190.57c1.21-0.15,2.27-0.49,3.18-1.02c0.91-0.53,2.2-0.64,3.87-0.34c1.67,1.36,2.61,3.07,2.84,5.12
		s0.15,4.21-0.23,6.48c-0.38,2.27-0.83,4.59-1.36,6.94c-0.53,2.35-0.65,4.51-0.34,6.48c5.76-0.76,10.91-2.31,15.46-4.66
		c4.55-2.35,8.75-5.08,12.62-8.19c3.87-3.1,7.5-6.4,10.92-9.89c3.41-3.49,6.86-6.74,10.35-9.78c0.3,1.82,0.19,3.49-0.34,5
		c-0.53,1.52-1.1,3.11-1.71,4.77c-5.31,7.13-11.41,13.42-18.3,18.87c-6.9,5.46-15.12,9.78-24.67,12.96c-2.73,0-4.85-0.61-6.37-1.82
		c-1.52-1.21-2.62-2.84-3.3-4.89c-0.68-2.05-1.02-4.36-1.02-6.94c0-2.58,0.15-5.23,0.45-7.96c-3.03,1.36-5.8,3.15-8.3,5.34
		c-2.5,2.2-5,4.47-7.5,6.82c-2.5,2.35-5.12,4.59-7.84,6.71c-2.73,2.12-5.91,3.71-9.55,4.77c-3.48,0.15-6.44-0.46-8.87-1.82
		c-1.21-1.82-1.78-3.98-1.71-6.48c0.08-2.5,0.49-5,1.25-7.5c0.76-2.5,1.74-4.89,2.96-7.16c1.21-2.27,2.27-4.24,3.18-5.91
		c2.12-3.48,4.32-6.63,6.59-9.44c2.27-2.8,4.24-5.49,5.91-8.07c1.21-1.36,2.8-2.46,4.77-3.3c1.97-0.83,4.01-1.36,6.14-1.59
		c2.12-0.23,4.17,0,6.14,0.68c1.97,0.68,3.64,1.78,5,3.3c1.21,1.52,1.82,3.52,1.82,6.03C591.07,186.59,590.39,188.75,589.02,190.57z
		 M582.43,183.75c-3.49,1.36-6.56,3.11-9.21,5.23c-2.65,2.12-5,4.55-7.05,7.28c-2.05,2.73-3.83,5.72-5.34,8.98
		c-1.51,3.26-2.96,6.63-4.32,10.12c5.61-2.73,10.46-6.21,14.55-10.46c4.09-4.24,8.41-8.33,12.96-12.28
		c-0.61-0.3-0.95-0.87-1.02-1.71c-0.08-0.83-0.08-1.71,0-2.62c0.07-0.91,0.11-1.78,0.11-2.61
		C583.11,184.85,582.88,184.2,582.43,183.75z"/>
</g>
<g>
	<path class="st12" d="M501.72,306.99c2.42,0.15,4.58,0.46,6.48,0.91c1.89,0.46,3.37,1.44,4.43,2.96c0.91,5.76,0.83,11.6-0.23,17.51
		c-1.06,5.91-2.5,12.36-4.32,19.33c-1.82,6.97-3.87,14.74-6.14,23.31c-2.27,8.57-4.25,18.38-5.91,29.45
		c-1.06,7.58-2.16,15.5-3.3,23.76c-1.14,8.26-1.93,16.6-2.39,25.01s-0.42,16.63,0.11,24.67c0.53,8.03,2.01,15.54,4.43,22.51
		c0.46,1.82,1.25,3.45,2.39,4.89c1.14,1.44,1.48,3.3,1.02,5.57c-2.12,0.46-3.64-0.19-4.55-1.93c-0.91-1.74-1.74-3.3-2.5-4.66
		c-0.76-1.36-1.74-2.96-2.96-4.78c-1.21-1.82-2.39-4.25-3.53-7.28c-1.14-3.03-2.12-6.86-2.96-11.48c-0.83-4.63-1.33-10.5-1.48-17.62
		c-0.31-12.12,0.38-24.52,2.05-37.18c1.67-12.66,3.75-25.01,6.25-37.06c2.5-12.05,5.08-23.53,7.73-34.45
		c2.65-10.91,4.89-20.77,6.71-29.56c-3.18,2.58-6.33,6.22-9.44,10.91c-3.11,4.7-6.18,9.97-9.21,15.8
		c-3.04,5.84-5.99,12.05-8.87,18.64c-2.88,6.59-5.54,13-7.96,19.21c-2.43,6.22-4.63,12.02-6.59,17.39c-1.97,5.38-3.64,9.82-5,13.3
		c-1.22,2.73-2.27,5.65-3.18,8.75c-0.91,3.11-1.97,6.03-3.18,8.75c-1.22,2.73-2.73,5.12-4.55,7.16c-1.82,2.05-4.32,3.3-7.5,3.75
		c-1.67-0.6-2.99-1.44-3.98-2.5c-0.99-1.06-2.09-2.05-3.3-2.96c-2.73-3.64-4.59-8.3-5.57-13.98c-0.99-5.68-1.36-11.86-1.14-18.53
		c0.23-6.67,0.83-13.6,1.82-20.8c0.98-7.2,2.05-14.13,3.18-20.81c1.14-6.67,2.2-12.88,3.18-18.64c0.98-5.76,1.55-10.53,1.71-14.33
		c-3.49,4.4-6.22,9.32-8.19,14.78c-1.97,5.46-4.02,10.99-6.14,16.6c-5,14.25-9.4,29.14-13.19,44.68
		c-3.79,15.54-7.2,31.49-10.23,47.86c-0.76,4.85-1.4,9.78-1.93,14.78c-0.53,5-1.86,9.24-3.98,12.73c-3.79,0.15-6.29-0.87-7.5-3.07
		c-1.21-2.2-1.78-4.93-1.71-8.19c0.08-3.26,0.57-6.75,1.48-10.46c0.91-3.72,1.59-7.01,2.05-9.89c1.82-10.76,3.98-21.41,6.48-31.95
		c2.5-10.53,5.27-20.65,8.3-30.35c2.27-7.12,3.94-12.85,5-17.17c1.06-4.32,2.16-8.26,3.3-11.82c1.14-3.56,2.58-7.35,4.32-11.37
		c1.74-4.01,4.36-9.36,7.84-16.03c1.51-2.73,2.99-5.49,4.43-8.3c1.44-2.8,3.52-4.96,6.25-6.48c2.42-0.6,4.62-0.57,6.59,0.11
		c1.97,0.68,3.64,1.56,5,2.61c2.27,4.85,2.92,11.37,1.93,19.55c-0.99,8.19-2.35,17.36-4.09,27.51c-1.74,10.16-3.34,20.88-4.78,32.17
		c-1.44,11.29-1.48,22.48-0.11,33.54c1.36-0.46,2.35-1.29,2.96-2.5c0.6-1.21,1.21-2.42,1.82-3.64c4.55-9.24,8.33-18.19,11.37-26.83
		c3.03-8.64,6.33-17.54,9.89-26.72c3.56-9.17,7.99-18.76,13.3-28.76c5.3-10,12.51-20.99,21.6-32.97l5.23-4.77
		c0.3,0,0.45-0.08,0.45-0.23C501.27,307.29,501.42,307.14,501.72,306.99z"/>
	<path class="st12" d="M542.19,416.13c1.21-0.15,2.27-0.49,3.18-1.02c0.91-0.53,2.2-0.64,3.87-0.34c1.67,1.37,2.61,3.07,2.84,5.12
		c0.23,2.05,0.15,4.21-0.23,6.48c-0.38,2.27-0.83,4.59-1.36,6.94c-0.53,2.35-0.65,4.51-0.34,6.48c5.76-0.76,10.91-2.31,15.46-4.66
		c4.55-2.35,8.75-5.08,12.62-8.19c3.87-3.1,7.5-6.4,10.92-9.89c3.41-3.49,6.86-6.74,10.35-9.78c0.3,1.82,0.19,3.49-0.34,5
		c-0.53,1.52-1.1,3.11-1.71,4.78c-5.31,7.13-11.41,13.42-18.3,18.87c-6.9,5.46-15.12,9.78-24.67,12.96c-2.73,0-4.85-0.61-6.37-1.82
		c-1.52-1.21-2.62-2.84-3.3-4.89c-0.68-2.05-1.02-4.36-1.02-6.93c0-2.58,0.15-5.23,0.45-7.96c-3.03,1.36-5.8,3.15-8.3,5.34
		c-2.5,2.2-5,4.47-7.5,6.82c-2.5,2.35-5.12,4.59-7.84,6.71s-5.91,3.71-9.55,4.77c-3.48,0.15-6.44-0.45-8.87-1.82
		c-1.21-1.82-1.78-3.98-1.71-6.48c0.08-2.5,0.49-5,1.25-7.5c0.76-2.5,1.74-4.89,2.96-7.16c1.22-2.27,2.27-4.24,3.18-5.91
		c2.12-3.49,4.32-6.63,6.59-9.44c2.27-2.8,4.24-5.49,5.91-8.07c1.21-1.36,2.8-2.46,4.77-3.3c1.97-0.83,4.01-1.36,6.14-1.59
		c2.12-0.23,4.17,0,6.14,0.68c1.97,0.68,3.64,1.78,5,3.3c1.21,1.52,1.82,3.52,1.82,6.03C544.24,412.15,543.56,414.31,542.19,416.13z
		 M535.6,409.31c-3.49,1.36-6.56,3.11-9.21,5.23c-2.65,2.12-5,4.55-7.05,7.28c-2.05,2.73-3.83,5.72-5.34,8.98
		c-1.51,3.26-2.96,6.63-4.32,10.12c5.61-2.73,10.46-6.21,14.55-10.46c4.09-4.24,8.41-8.33,12.96-12.28
		c-0.61-0.3-0.95-0.87-1.02-1.71c-0.08-0.83-0.08-1.71,0-2.62c0.07-0.91,0.11-1.78,0.11-2.61
		C536.28,410.41,536.05,409.76,535.6,409.31z"/>
	<path class="st12" d="M630.87,437.28c-2.43,0.31-3.98-0.19-4.66-1.48c-0.68-1.29-1.48-2.39-2.39-3.3
		c-0.91-2.27-1.36-4.66-1.36-7.16c0-2.5,0.15-5.04,0.46-7.62c0.3-2.58,0.6-5.12,0.91-7.62c0.3-2.5,0.3-5.04,0-7.62
		c-3.49,2.58-6.56,6.1-9.21,10.57c-2.65,4.47-5.57,8.45-8.75,11.94c-0.91,2.12-1.93,4.13-3.07,6.03c-1.14,1.9-2.24,3.9-3.3,6.03
		c-0.91,1.22-2.09,2.31-3.52,3.3c-1.44,0.99-2.88,1.59-4.32,1.82c-1.44,0.23-2.76,0-3.98-0.68c-1.21-0.68-2.05-2.16-2.5-4.43
		c-0.76-3.33-0.53-6.63,0.68-9.89c1.22-3.26,2.27-6.48,3.18-9.66c0.91-2.58,1.82-5,2.73-7.28c0.91-2.27,1.59-4.24,2.05-5.91
		c1.82,0.31,3.6,0.61,5.34,0.91c1.74,0.31,2.99,1.06,3.75,2.27c-0.46,1.67-1.06,3.18-1.82,4.55c-0.76,1.36-1.44,2.88-2.05,4.55
		c2.12-1.36,3.87-3.26,5.23-5.68c1.36-2.42,2.8-4.77,4.32-7.05c1.51-2.27,3.37-4.21,5.57-5.8c2.2-1.59,5.19-2.16,8.98-1.71
		c1.67,0.76,3.07,1.71,4.21,2.84s2.23,2.47,3.3,3.98c0.6,2.73,0.68,5.57,0.23,8.53s-0.91,5.91-1.36,8.87s-0.68,5.84-0.68,8.64
		C628.82,432.01,629.5,434.7,630.87,437.28z"/>
	<path class="st12" d="M650.19,397.49c1.21,0.31,2.23,0.83,3.07,1.59c0.83,0.76,1.63,1.59,2.39,2.5c-0.46,3.94-1.21,7.54-2.27,10.8
		c-1.06,3.26-2.2,6.44-3.41,9.55c-1.21,3.11-2.35,6.29-3.41,9.55c-1.06,3.26-1.67,6.71-1.82,10.35c2.12-0.3,4.13-0.95,6.03-1.93
		c1.89-0.98,3.67-2.08,5.34-3.3c1.67-1.21,3.33-2.5,5-3.87c1.67-1.36,3.33-2.58,5-3.64c3.03-2.88,6.06-5.68,9.09-8.41
		c3.03-2.73,6.21-5.38,9.55-7.96c1.67,0.76,3.03,1.71,4.09,2.84c1.06,1.14,2.12,2.31,3.18,3.52c-0.46,1.82-0.68,3.87-0.68,6.14
		s0,4.55,0,6.82c0.76,0.61,1.82,0.95,3.18,1.02c1.36,0.08,2.73,0.04,4.09-0.11c4.24-1.06,8.07-2.73,11.48-5
		c3.41-2.27,6.59-4.78,9.55-7.5s5.76-5.57,8.41-8.53c2.65-2.96,5.42-5.65,8.3-8.07c0.15,5.61-1.21,10.46-4.09,14.55
		c-2.88,4.09-6.22,7.81-10,11.14c-3.18,2.88-6.48,5.57-9.89,8.07c-3.41,2.5-7.09,4.13-11.03,4.89c-2.73,0.46-5.08,0.31-7.05-0.45
		c-1.97-0.76-3.64-1.93-5-3.52s-2.43-3.45-3.18-5.57c-0.76-2.12-1.36-4.39-1.82-6.82c-2.27,1.36-4.36,2.88-6.25,4.55
		c-1.9,1.67-3.79,3.38-5.68,5.12c-1.9,1.74-3.83,3.52-5.8,5.34c-1.97,1.82-4.09,3.49-6.37,5c-1.06,0.76-2.27,1.51-3.64,2.27
		c-1.36,0.76-2.81,1.36-4.32,1.82c-1.52,0.46-3.03,0.6-4.55,0.46c-1.51-0.15-2.96-0.76-4.32-1.82c-2.12-1.67-3.64-4.47-4.55-8.41
		c-0.91-3.94-0.91-7.96,0-12.05c0.31-1.97,1.02-4.4,2.16-7.28c1.14-2.88,2.09-5.53,2.84-7.96c0.76-2.58,1.59-5.42,2.5-8.53
		c0.91-3.1,1.89-5.26,2.96-6.48L650.19,397.49z"/>
	<path class="st12" d="M735,421.81c-1.21,1.52-2.05,3.41-2.5,5.68c-0.46,2.27-0.98,4.55-1.59,6.82c2.58,1.36,5.27,2.09,8.07,2.16
		c2.8,0.08,5.61-0.23,8.41-0.91c2.8-0.68,5.57-1.59,8.3-2.73s5.3-2.23,7.73-3.3c3.49-1.51,6.82-3.22,10-5.12
		c3.18-1.89,6.29-3.6,9.32-5.12c0.15,1.06-0.31,1.93-1.36,2.62c-1.06,0.68-1.97,1.4-2.73,2.16c-0.76,0.76-1.59,1.4-2.5,1.93
		c-0.91,0.53-1.67,1.33-2.27,2.39c-1.67,1.21-3.34,2.5-5,3.87c-1.67,1.36-3.49,2.65-5.46,3.87c-1.67,1.67-4.02,3.38-7.05,5.12
		c-3.03,1.74-6.25,3.07-9.66,3.98c-3.41,0.91-6.71,1.22-9.89,0.91c-3.18-0.3-5.83-1.74-7.96-4.32c-1.51-2.12-2.5-4.81-2.96-8.07
		c-0.46-3.26-0.46-6.63,0-10.12c2.73-7.28,6.14-13.72,10.23-19.33c4.09-5.61,9.4-10.08,15.92-13.42c0.3,0.15,0.49,0.15,0.57,0
		c0.08-0.15,0.26-0.23,0.57-0.23c4.39-0.46,7.84,0.23,10.35,2.05c2.5,1.82,3.37,4.85,2.62,9.1c-2.88,5.16-6.33,9.7-10.35,13.64
		c-4.02,3.94-9.51,6.52-16.49,7.73C737.35,423.18,735.91,422.72,735,421.81z M740.92,411.13c3.49-1.67,6.94-3.71,10.35-6.14
		c3.41-2.42,5.8-5.15,7.16-8.19C751.6,400.29,745.77,405.07,740.92,411.13z"/>
	<path class="st12" d="M847.78,258.56c4.09,0.31,6.97,1.78,8.64,4.43c1.67,2.65,2.65,5.8,2.96,9.44c0.3,3.64,0.04,7.47-0.8,11.48
		c-0.83,4.02-1.71,7.54-2.62,10.57c-2.88,9.25-5.99,18.3-9.32,27.17c-3.34,8.87-6.75,17.39-10.23,25.58
		c-5.31,11.82-10.46,23.19-15.46,34.11c-5,10.91-10.76,20.77-17.28,29.56c-1.06,0.91-2.12,1.75-3.18,2.5
		c-1.06,0.76-2.12,1.67-3.18,2.73c-0.76,2.73-1.33,5.72-1.71,8.98c-0.38,3.26-0.53,6.48-0.46,9.66c0.08,3.18,0.53,6.18,1.36,8.98
		c0.83,2.81,2.08,5.12,3.75,6.94c3.64-0.91,6.9-2.16,9.78-3.75c2.88-1.59,5.61-3.33,8.19-5.23c2.58-1.89,5.04-3.9,7.39-6.03
		c2.35-2.12,4.81-4.17,7.39-6.14c2.12-2.27,4.43-4.39,6.93-6.37c2.5-1.97,4.81-4.09,6.94-6.37c2.73-1.82,5.12-3.94,7.16-6.37
		c2.05-2.42,4.58-4.4,7.62-5.91c-1.06,3.03-2.58,5.8-4.55,8.3c-1.97,2.5-4.02,5.04-6.14,7.62c-2.12,2.58-4.13,5.16-6.03,7.73
		c-1.9,2.58-3.9,5-6.03,7.28c-2.12,2.58-4.28,4.85-6.48,6.82c-2.2,1.97-4.74,4.02-7.62,6.14c-2.43,1.82-5.16,3.79-8.19,5.91
		c-3.03,2.12-6.44,3.11-10.23,2.96c-2.58,0-5.08-0.72-7.5-2.16c-2.43-1.44-4.55-3.26-6.37-5.46c-1.82-2.2-3.3-4.74-4.43-7.62
		c-1.14-2.88-1.78-5.83-1.93-8.87c0-2.58,0.34-5.23,1.02-7.96c0.68-2.73,0.87-5.38,0.57-7.96c-0.15-0.91-0.49-1.74-1.02-2.5
		c-0.53-0.76-0.72-1.59-0.57-2.5c0.15-1.06,0.49-1.63,1.02-1.71c0.53-0.07,0.95-0.72,1.25-1.93c2.27-14.7,5.23-28.99,8.87-42.86
		c3.64-13.87,7.65-27.32,12.05-40.36c2.12-6.37,4.43-12.66,6.93-18.87c2.5-6.21,5.34-12.05,8.53-17.51
		c3.18-5.46,6.44-10.84,9.78-16.14c3.33-5.3,7.43-9.78,12.28-13.42C847.18,258.86,847.48,258.56,847.78,258.56z M828.23,340.19
		c2.12-4.85,4.32-9.7,6.59-14.55c2.27-4.85,4.32-10.08,6.14-15.69c2.12-6.37,4.32-13,6.59-19.9c2.27-6.9,3.11-14.29,2.5-22.17
		c0-0.3-0.08-0.45-0.23-0.45c-3.79,4.25-7.13,8.68-10,13.3c-2.88,4.62-5.68,9.44-8.41,14.44c-5.31,9.7-9.89,20.12-13.76,31.26
		s-7.32,22.62-10.35,34.45c-1.36,6.07-2.81,12.09-4.32,18.08c-1.52,5.99-2.65,12.17-3.41,18.53c5.3-9.09,10.31-18.38,15.01-27.85
		C819.28,360.16,823.83,350.34,828.23,340.19z"/>
</g>
<g>
	<path class="st9" d="M381.67,277.66c3.64-0.3,7.46-0.6,11.48-0.91c4.01-0.3,7.99-0.53,11.94-0.68c3.94-0.15,7.81-0.08,11.6,0.23
		c3.79,0.31,7.28,0.99,10.46,2.05c0.6,1.21,0.98,2.54,1.14,3.98c0.15,1.44,0.3,3,0.45,4.66c-0.76,0.46-1.48,0.87-2.16,1.25
		c-0.68,0.38-1.63,0.49-2.84,0.34c-0.76-0.3-1.21-0.8-1.36-1.48c-0.15-0.68-0.38-1.4-0.68-2.16c-6.52-0.91-13.38-1.21-20.58-0.91
		c-7.2,0.31-13.91,0.91-20.12,1.82c-1.52,4.7-2.5,9.93-2.96,15.69c-0.45,5.76-1.06,11.45-1.82,17.05c-1.67,0.45-2.88,0-3.64-1.36
		c-0.76-1.36-1.59-2.42-2.5-3.18c-0.31-2.73-1.02-5.15-2.16-7.28c-1.14-2.12-2.5-4.05-4.09-5.8c-1.59-1.74-3.34-3.33-5.23-4.77
		c-1.9-1.44-3.75-2.76-5.57-3.98c-1.06,0.15-1.97,0.34-2.73,0.57c-0.76,0.23-1.74,0.27-2.96,0.11c-1.06-1.06-1.59-2.69-1.59-4.89
		c0-2.2,0.38-3.9,1.14-5.12c3.49-0.45,7.77-1.06,12.85-1.82c5.08-0.76,9.66-1.59,13.76-2.5c0.76-1.67,1.29-3.6,1.59-5.8
		c0.3-2.2,0.57-4.43,0.8-6.71c0.23-2.27,0.45-4.55,0.68-6.82c0.23-2.27,0.64-4.32,1.25-6.14c1.97,0,3.37,0.53,4.21,1.59
		c0.83,1.06,1.71,2.2,2.61,3.41c-0.31,3.49-0.72,6.82-1.25,10C382.84,271.29,382.27,274.47,381.67,277.66z M356.43,291.07
		c5.15,4.09,9.93,8.64,14.32,13.64c-0.31-3.03,0-6.03,0.91-8.98c0.91-2.96,0.98-5.72,0.23-8.3c-2.58,0.61-5.19,1.18-7.84,1.71
		C361.39,289.67,358.85,290.31,356.43,291.07z"/>
</g>
<rect x="89.03" y="31.63" class="st6" width="767.08" height="415.68"/>
</svg>
